<svg width="120" height="40" viewBox="0 0 120 40" fill="none" xmlns="http://www.w3.org/2000/svg">
<rect x="0.5" y="0.5" width="119" height="39" rx="5.5" fill="black"/>
<rect x="0.5" y="0.5" width="119" height="39" rx="5.5" stroke="#A6A6A6"/>
<path d="M24.7045 20.7631C24.7166 19.8432 24.9669 18.9413 25.4321 18.1412C25.8972 17.3411 26.5621 16.6688 27.3648 16.187C26.8548 15.476 26.1821 14.8908 25.4 14.478C24.6178 14.0652 23.7479 13.8361 22.8592 13.809C20.9635 13.6147 19.1258 14.9164 18.1598 14.9164C17.1751 14.9164 15.6878 13.8283 14.0862 13.8604C13.0502 13.8931 12.0406 14.1872 11.1557 14.7141C10.2708 15.241 9.54075 15.9827 9.03674 16.8669C6.85352 20.5573 8.48201 25.9809 10.5734 28.964C11.6197 30.4247 12.8426 32.0564 14.4428 31.9985C16.0086 31.9351 16.5934 31.0237 18.4835 31.0237C20.3561 31.0237 20.9048 31.9985 22.5374 31.9617C24.2176 31.9351 25.2762 30.4945 26.2859 29.02C27.0377 27.9792 27.6162 26.8288 28 25.6116C27.0238 25.2085 26.1908 24.5338 25.6048 23.6716C25.0187 22.8094 24.7056 21.7979 24.7045 20.7631Z" fill="white"/>
<path d="M21.6208 11.8471C22.5369 10.7734 22.9883 9.39335 22.879 8C21.4794 8.14352 20.1865 8.7966 19.258 9.82911C18.804 10.3335 18.4563 10.9203 18.2348 11.556C18.0132 12.1917 17.9222 12.8638 17.9669 13.5338C18.6669 13.5408 19.3595 13.3927 19.9924 13.1005C20.6254 12.8084 21.1821 12.3798 21.6208 11.8471Z" fill="white"/>
<path d="M38.9295 14.635C38.4705 14.635 38.0565 14.557 37.6875 14.401C37.3215 14.245 37.0185 14.023 36.7785 13.735C36.5415 13.444 36.387 13.1005 36.315 12.7045L37.143 12.574C37.248 12.982 37.4655 13.3015 37.7955 13.5325C38.1285 13.7605 38.52 13.8745 38.97 13.8745C39.261 13.8745 39.5235 13.8295 39.7575 13.7395C39.9945 13.6465 40.182 13.5145 40.32 13.3435C40.458 13.1725 40.527 12.97 40.527 12.736C40.527 12.592 40.5015 12.469 40.4505 12.367C40.4025 12.262 40.335 12.1735 40.248 12.1015C40.164 12.0265 40.068 11.9635 39.96 11.9125C39.852 11.8615 39.7395 11.8195 39.6225 11.7865L37.971 11.296C37.791 11.242 37.617 11.1745 37.449 11.0935C37.281 11.0095 37.131 10.906 36.999 10.783C36.867 10.657 36.762 10.507 36.684 10.333C36.606 10.156 36.567 9.9475 36.567 9.7075C36.567 9.3235 36.666 8.9965 36.864 8.7265C37.065 8.4535 37.3365 8.245 37.6785 8.101C38.0205 7.957 38.406 7.8865 38.835 7.8895C39.27 7.8925 39.6585 7.9705 40.0005 8.1235C40.3455 8.2735 40.6305 8.4895 40.8555 8.7715C41.0835 9.0535 41.2365 9.391 41.3145 9.784L40.464 9.9325C40.419 9.6685 40.3185 9.442 40.1625 9.253C40.0095 9.061 39.8175 8.914 39.5865 8.812C39.3555 8.707 39.102 8.653 38.826 8.65C38.562 8.647 38.3235 8.689 38.1105 8.776C37.8975 8.863 37.728 8.9845 37.602 9.1405C37.476 9.2935 37.413 9.4705 37.413 9.6715C37.413 9.8695 37.47 10.03 37.584 10.153C37.698 10.273 37.8375 10.369 38.0025 10.441C38.1705 10.51 38.334 10.567 38.493 10.612L39.726 10.9675C39.867 11.0065 40.029 11.0605 40.212 11.1295C40.398 11.1985 40.578 11.296 40.752 11.422C40.926 11.545 41.07 11.71 41.184 11.917C41.298 12.121 41.355 12.379 41.355 12.691C41.355 13.003 41.292 13.2805 41.166 13.5235C41.043 13.7665 40.8705 13.9705 40.6485 14.1355C40.4265 14.2975 40.1685 14.4205 39.8745 14.5045C39.5805 14.5915 39.2655 14.635 38.9295 14.635ZM44.3464 14.635C43.8544 14.635 43.4359 14.5255 43.0909 14.3065C42.7489 14.0845 42.4879 13.78 42.3079 13.393C42.1279 13.006 42.0349 12.565 42.0289 12.07C42.0349 11.563 42.1294 11.1175 42.3124 10.7335C42.4984 10.3465 42.7639 10.045 43.1089 9.829C43.4539 9.613 43.8694 9.505 44.3554 9.505C44.8684 9.505 45.3094 9.631 45.6784 9.883C46.0504 10.135 46.2994 10.48 46.4254 10.918L45.6334 11.1565C45.5314 10.8745 45.3649 10.6555 45.1339 10.4995C44.9059 10.3435 44.6434 10.2655 44.3464 10.2655C44.0134 10.2655 43.7389 10.3435 43.5229 10.4995C43.3069 10.6525 43.1464 10.8655 43.0414 11.1385C42.9364 11.4085 42.8824 11.719 42.8794 12.07C42.8854 12.61 43.0099 13.0465 43.2529 13.3795C43.4989 13.7095 43.8634 13.8745 44.3464 13.8745C44.6644 13.8745 44.9284 13.8025 45.1384 13.6585C45.3484 13.5115 45.5074 13.3 45.6154 13.024L46.4254 13.2355C46.2574 13.6885 45.9949 14.035 45.6379 14.275C45.2809 14.515 44.8504 14.635 44.3464 14.635ZM48.6814 14.635C48.3184 14.635 48.0139 14.569 47.7679 14.437C47.5249 14.302 47.3404 14.125 47.2144 13.906C47.0914 13.687 47.0299 13.447 47.0299 13.186C47.0299 12.931 47.0779 12.7105 47.1739 12.5245C47.2729 12.3355 47.4109 12.1795 47.5879 12.0565C47.7649 11.9305 47.9764 11.8315 48.2224 11.7595C48.4534 11.6965 48.7114 11.6425 48.9964 11.5975C49.2844 11.5495 49.5754 11.506 49.8694 11.467C50.1634 11.428 50.4379 11.3905 50.6929 11.3545L50.4049 11.521C50.4139 11.089 50.3269 10.7695 50.1439 10.5625C49.9639 10.3555 49.6519 10.252 49.2079 10.252C48.9139 10.252 48.6559 10.3195 48.4339 10.4545C48.2149 10.5865 48.0604 10.8025 47.9704 11.1025L47.2099 10.873C47.3269 10.447 47.5534 10.1125 47.8894 9.8695C48.2254 9.6265 48.6679 9.505 49.2169 9.505C49.6579 9.505 50.0359 9.5845 50.3509 9.7435C50.6689 9.8995 50.8969 10.1365 51.0349 10.4545C51.1039 10.6045 51.1474 10.768 51.1654 10.945C51.1834 11.119 51.1924 11.302 51.1924 11.494V14.5H50.4814V13.3345L50.6479 13.4425C50.4649 13.8355 50.2084 14.1325 49.8784 14.3335C49.5514 14.5345 49.1524 14.635 48.6814 14.635ZM48.8029 13.9645C49.0909 13.9645 49.3399 13.9135 49.5499 13.8115C49.7629 13.7065 49.9339 13.57 50.0629 13.402C50.1919 13.231 50.2759 13.045 50.3149 12.844C50.3599 12.694 50.3839 12.5275 50.3869 12.3445C50.3929 12.1585 50.3959 12.016 50.3959 11.917L50.6749 12.0385C50.4139 12.0745 50.1574 12.109 49.9054 12.142C49.6534 12.175 49.4149 12.211 49.1899 12.25C48.9649 12.286 48.7624 12.3295 48.5824 12.3805C48.4504 12.4225 48.3259 12.4765 48.2089 12.5425C48.0949 12.6085 48.0019 12.694 47.9299 12.799C47.8609 12.901 47.8264 13.0285 47.8264 13.1815C47.8264 13.3135 47.8594 13.4395 47.9254 13.5595C47.9944 13.6795 48.0994 13.777 48.2404 13.852C48.3844 13.927 48.5719 13.9645 48.8029 13.9645ZM52.3624 14.5V9.64H53.0779V10.8145L52.9609 10.6615C53.0179 10.5115 53.0914 10.3735 53.1814 10.2475C53.2744 10.1215 53.3779 10.018 53.4919 9.937C53.6179 9.835 53.7604 9.757 53.9194 9.703C54.0784 9.649 54.2404 9.6175 54.4054 9.6085C54.5704 9.5965 54.7249 9.607 54.8689 9.64V10.3915C54.7009 10.3465 54.5164 10.3345 54.3154 10.3555C54.1144 10.3765 53.9284 10.45 53.7574 10.576C53.6014 10.687 53.4799 10.822 53.3929 10.981C53.3089 11.14 53.2504 11.3125 53.2174 11.4985C53.1844 11.6815 53.1679 11.869 53.1679 12.061V14.5H52.3624ZM55.8098 8.7805V7.9525H56.6108V8.7805H55.8098ZM55.8098 14.5V9.64H56.6108V14.5H55.8098ZM60.0086 14.635C59.5166 14.635 59.0981 14.5255 58.7531 14.3065C58.4111 14.0845 58.1501 13.78 57.9701 13.393C57.7901 13.006 57.6971 12.565 57.6911 12.07C57.6971 11.563 57.7916 11.1175 57.9746 10.7335C58.1606 10.3465 58.4261 10.045 58.7711 9.829C59.1161 9.613 59.5316 9.505 60.0176 9.505C60.5306 9.505 60.9716 9.631 61.3406 9.883C61.7126 10.135 61.9616 10.48 62.0876 10.918L61.2956 11.1565C61.1936 10.8745 61.0271 10.6555 60.7961 10.4995C60.5681 10.3435 60.3056 10.2655 60.0086 10.2655C59.6756 10.2655 59.4011 10.3435 59.1851 10.4995C58.9691 10.6525 58.8086 10.8655 58.7036 11.1385C58.5986 11.4085 58.5446 11.719 58.5416 12.07C58.5476 12.61 58.6721 13.0465 58.9151 13.3795C59.1611 13.7095 59.5256 13.8745 60.0086 13.8745C60.3266 13.8745 60.5906 13.8025 60.8006 13.6585C61.0106 13.5115 61.1696 13.3 61.2776 13.024L62.0876 13.2355C61.9196 13.6885 61.6571 14.035 61.3001 14.275C60.9431 14.515 60.5126 14.635 60.0086 14.635ZM64.3435 14.635C63.9805 14.635 63.676 14.569 63.43 14.437C63.187 14.302 63.0025 14.125 62.8765 13.906C62.7535 13.687 62.692 13.447 62.692 13.186C62.692 12.931 62.74 12.7105 62.836 12.5245C62.935 12.3355 63.073 12.1795 63.25 12.0565C63.427 11.9305 63.6385 11.8315 63.8845 11.7595C64.1155 11.6965 64.3735 11.6425 64.6585 11.5975C64.9465 11.5495 65.2375 11.506 65.5315 11.467C65.8255 11.428 66.1 11.3905 66.355 11.3545L66.067 11.521C66.076 11.089 65.989 10.7695 65.806 10.5625C65.626 10.3555 65.314 10.252 64.87 10.252C64.576 10.252 64.318 10.3195 64.096 10.4545C63.877 10.5865 63.7225 10.8025 63.6325 11.1025L62.872 10.873C62.989 10.447 63.2155 10.1125 63.5515 9.8695C63.8875 9.6265 64.33 9.505 64.879 9.505C65.32 9.505 65.698 9.5845 66.013 9.7435C66.331 9.8995 66.559 10.1365 66.697 10.4545C66.766 10.6045 66.8095 10.768 66.8275 10.945C66.8455 11.119 66.8545 11.302 66.8545 11.494V14.5H66.1435V13.3345L66.31 13.4425C66.127 13.8355 65.8705 14.1325 65.5405 14.3335C65.2135 14.5345 64.8145 14.635 64.3435 14.635ZM64.465 13.9645C64.753 13.9645 65.002 13.9135 65.212 13.8115C65.425 13.7065 65.596 13.57 65.725 13.402C65.854 13.231 65.938 13.045 65.977 12.844C66.022 12.694 66.046 12.5275 66.049 12.3445C66.055 12.1585 66.058 12.016 66.058 11.917L66.337 12.0385C66.076 12.0745 65.8195 12.109 65.5675 12.142C65.3155 12.175 65.077 12.211 64.852 12.25C64.627 12.286 64.4245 12.3295 64.2445 12.3805C64.1125 12.4225 63.988 12.4765 63.871 12.5425C63.757 12.6085 63.664 12.694 63.592 12.799C63.523 12.901 63.4885 13.0285 63.4885 13.1815C63.4885 13.3135 63.5215 13.4395 63.5875 13.5595C63.6565 13.6795 63.7615 13.777 63.9025 13.852C64.0465 13.927 64.234 13.9645 64.465 13.9645ZM68.1145 14.5V7.885H68.9155V14.5H68.1145ZM71.6472 14.635C71.2842 14.635 70.9797 14.569 70.7337 14.437C70.4907 14.302 70.3062 14.125 70.1802 13.906C70.0572 13.687 69.9957 13.447 69.9957 13.186C69.9957 12.931 70.0437 12.7105 70.1397 12.5245C70.2387 12.3355 70.3767 12.1795 70.5537 12.0565C70.7307 11.9305 70.9422 11.8315 71.1882 11.7595C71.4192 11.6965 71.6772 11.6425 71.9622 11.5975C72.2502 11.5495 72.5412 11.506 72.8352 11.467C73.1292 11.428 73.4037 11.3905 73.6587 11.3545L73.3707 11.521C73.3797 11.089 73.2927 10.7695 73.1097 10.5625C72.9297 10.3555 72.6177 10.252 72.1737 10.252C71.8797 10.252 71.6217 10.3195 71.3997 10.4545C71.1807 10.5865 71.0262 10.8025 70.9362 11.1025L70.1757 10.873C70.2927 10.447 70.5192 10.1125 70.8552 9.8695C71.1912 9.6265 71.6337 9.505 72.1827 9.505C72.6237 9.505 73.0017 9.5845 73.3167 9.7435C73.6347 9.8995 73.8627 10.1365 74.0007 10.4545C74.0697 10.6045 74.1132 10.768 74.1312 10.945C74.1492 11.119 74.1582 11.302 74.1582 11.494V14.5H73.4472V13.3345L73.6137 13.4425C73.4307 13.8355 73.1742 14.1325 72.8442 14.3335C72.5172 14.5345 72.1182 14.635 71.6472 14.635ZM71.7687 13.9645C72.0567 13.9645 72.3057 13.9135 72.5157 13.8115C72.7287 13.7065 72.8997 13.57 73.0287 13.402C73.1577 13.231 73.2417 13.045 73.2807 12.844C73.3257 12.694 73.3497 12.5275 73.3527 12.3445C73.3587 12.1585 73.3617 12.016 73.3617 11.917L73.6407 12.0385C73.3797 12.0745 73.1232 12.109 72.8712 12.142C72.6192 12.175 72.3807 12.211 72.1557 12.25C71.9307 12.286 71.7282 12.3295 71.5482 12.3805C71.4162 12.4225 71.2917 12.4765 71.1747 12.5425C71.0607 12.6085 70.9677 12.694 70.8957 12.799C70.8267 12.901 70.7922 13.0285 70.7922 13.1815C70.7922 13.3135 70.8252 13.4395 70.8912 13.5595C70.9602 13.6795 71.0652 13.777 71.2062 13.852C71.3502 13.927 71.5377 13.9645 71.7687 13.9645ZM79.038 14.635C78.585 14.635 78.1965 14.5225 77.8725 14.2975C77.5485 14.0695 77.298 13.762 77.121 13.375C76.947 12.988 76.86 12.5515 76.86 12.0655C76.86 11.5795 76.947 11.143 77.121 10.756C77.298 10.369 77.5485 10.0645 77.8725 9.8425C78.1965 9.6175 78.5835 9.505 79.0335 9.505C79.4925 9.505 79.878 9.616 80.19 9.838C80.502 10.06 80.7375 10.3645 80.8965 10.7515C81.0585 11.1385 81.1395 11.5765 81.1395 12.0655C81.1395 12.5485 81.0585 12.985 80.8965 13.375C80.7375 13.762 80.502 14.0695 80.19 14.2975C79.878 14.5225 79.494 14.635 79.038 14.635ZM79.137 13.9015C79.464 13.9015 79.7325 13.8235 79.9425 13.6675C80.1525 13.5085 80.307 13.291 80.406 13.015C80.508 12.736 80.559 12.4195 80.559 12.0655C80.559 11.7055 80.508 11.389 80.406 11.116C80.307 10.84 80.154 10.6255 79.947 10.4725C79.74 10.3165 79.4775 10.2385 79.1595 10.2385C78.8295 10.2385 78.5565 10.3195 78.3405 10.4815C78.1275 10.6435 77.9685 10.8625 77.8635 11.1385C77.7615 11.4145 77.7105 11.7235 77.7105 12.0655C77.7105 12.4105 77.763 12.7225 77.868 13.0015C77.973 13.2775 78.1305 13.4965 78.3405 13.6585C78.5535 13.8205 78.819 13.9015 79.137 13.9015ZM80.559 14.5V10.9225H80.469V8.02H81.2745V14.5H80.559ZM83.9168 14.635C83.5538 14.635 83.2493 14.569 83.0033 14.437C82.7603 14.302 82.5758 14.125 82.4498 13.906C82.3268 13.687 82.2653 13.447 82.2653 13.186C82.2653 12.931 82.3133 12.7105 82.4093 12.5245C82.5083 12.3355 82.6463 12.1795 82.8233 12.0565C83.0003 11.9305 83.2118 11.8315 83.4578 11.7595C83.6888 11.6965 83.9468 11.6425 84.2318 11.5975C84.5198 11.5495 84.8108 11.506 85.1048 11.467C85.3988 11.428 85.6733 11.3905 85.9283 11.3545L85.6403 11.521C85.6493 11.089 85.5623 10.7695 85.3793 10.5625C85.1993 10.3555 84.8873 10.252 84.4433 10.252C84.1493 10.252 83.8913 10.3195 83.6693 10.4545C83.4503 10.5865 83.2958 10.8025 83.2058 11.1025L82.4453 10.873C82.5623 10.447 82.7888 10.1125 83.1248 9.8695C83.4608 9.6265 83.9033 9.505 84.4523 9.505C84.8933 9.505 85.2713 9.5845 85.5863 9.7435C85.9043 9.8995 86.1323 10.1365 86.2703 10.4545C86.3393 10.6045 86.3828 10.768 86.4008 10.945C86.4188 11.119 86.4278 11.302 86.4278 11.494V14.5H85.7168V13.3345L85.8833 13.4425C85.7003 13.8355 85.4438 14.1325 85.1138 14.3335C84.7868 14.5345 84.3878 14.635 83.9168 14.635ZM84.0383 13.9645C84.3263 13.9645 84.5753 13.9135 84.7853 13.8115C84.9983 13.7065 85.1693 13.57 85.2983 13.402C85.4273 13.231 85.5113 13.045 85.5503 12.844C85.5953 12.694 85.6193 12.5275 85.6223 12.3445C85.6283 12.1585 85.6313 12.016 85.6313 11.917L85.9103 12.0385C85.6493 12.0745 85.3928 12.109 85.1408 12.142C84.8888 12.175 84.6503 12.211 84.4253 12.25C84.2003 12.286 83.9978 12.3295 83.8178 12.3805C83.6858 12.4225 83.5613 12.4765 83.4443 12.5425C83.3303 12.6085 83.2373 12.694 83.1653 12.799C83.0963 12.901 83.0618 13.0285 83.0618 13.1815C83.0618 13.3135 83.0948 13.4395 83.1608 13.5595C83.2298 13.6795 83.3348 13.777 83.4758 13.852C83.6198 13.927 83.8073 13.9645 84.0383 13.9645Z" fill="white"/>
<path d="M38.2061 30.5H36.1758L40.3066 18.5029H42.5391L46.6611 30.5H44.5518L43.4883 27.1777H39.2783L38.2061 30.5ZM41.4316 20.5771H41.3525L39.7266 25.6484H43.04L41.4316 20.5771ZM52.2644 30.6318C51.0603 30.6318 50.1462 30.0605 49.654 29.208H49.5837V33.585H47.6325V21.21H49.531V22.5723H49.6013C50.1111 21.6846 51.0603 21.0869 52.3083 21.0869C54.3913 21.0869 55.8767 22.6602 55.8767 25.4375V26.2637C55.8767 29.0234 54.4089 30.6318 52.2644 30.6318ZM51.8161 29.0234C53.0554 29.0234 53.8991 28.0303 53.8991 26.1582V25.5078C53.8991 23.7061 53.1081 22.6777 51.781 22.6777C50.4187 22.6777 49.5661 23.7852 49.5661 25.499V26.1582C49.5661 27.916 50.4275 29.0234 51.8161 29.0234ZM62.183 30.6318C60.9789 30.6318 60.0649 30.0605 59.5727 29.208H59.5024V33.585H57.5512V21.21H59.4496V22.5723H59.52C60.0297 21.6846 60.9789 21.0869 62.227 21.0869C64.31 21.0869 65.7954 22.6602 65.7954 25.4375V26.2637C65.7954 29.0234 64.3276 30.6318 62.183 30.6318ZM61.7348 29.0234C62.9741 29.0234 63.8178 28.0303 63.8178 26.1582V25.5078C63.8178 23.7061 63.0268 22.6777 61.6996 22.6777C60.3373 22.6777 59.4848 23.7852 59.4848 25.499V26.1582C59.4848 27.916 60.3461 29.0234 61.7348 29.0234ZM69.8387 27.1689H71.7899C71.8778 28.2061 72.7919 29.0938 74.4882 29.0938C76.0438 29.0938 76.9667 28.3643 76.9667 27.2305C76.9667 26.3164 76.3514 25.8242 75.0682 25.5166L73.0995 25.0244C71.5526 24.6641 70.1639 23.7412 70.1639 21.79C70.1639 19.4961 72.1679 18.2393 74.497 18.2393C76.8261 18.2393 78.7684 19.4961 78.8124 21.7373H76.8964C76.8085 20.7178 76.0262 19.874 74.4706 19.874C73.0995 19.874 72.1679 20.5244 72.1679 21.6406C72.1679 22.4229 72.7128 22.9854 73.829 23.2402L75.7889 23.7236C77.5907 24.1631 78.9618 25.0156 78.9618 27.0547C78.9618 29.4102 77.0546 30.7373 74.3387 30.7373C70.9989 30.7373 69.8827 28.7861 69.8387 27.1689ZM81.3395 21.21V18.9512H83.2555V21.21H85.066V22.7744H83.2555V27.7314C83.2555 28.7422 83.6334 29.0234 84.6793 29.0234C84.8463 29.0234 85.0045 29.0234 85.1188 29.0059V30.5C84.9605 30.5264 84.5914 30.5615 84.1959 30.5615C81.9371 30.5615 81.3131 29.7529 81.3131 27.8896V22.7744H80.0299V21.21H81.3395ZM90.3353 21.0518C93.0071 21.0518 94.4573 22.9326 94.4573 25.4639V26.2109C94.4573 28.8301 93.0159 30.6582 90.3353 30.6582C87.6546 30.6582 86.1956 28.8301 86.1956 26.2109V25.4639C86.1956 22.9414 87.6634 21.0518 90.3353 21.0518ZM90.3353 22.6162C88.8851 22.6162 88.1644 23.8027 88.1644 25.4902V26.2021C88.1644 27.8633 88.8763 29.085 90.3353 29.085C91.7943 29.085 92.4974 27.8721 92.4974 26.2021V25.4902C92.4974 23.7939 91.7855 22.6162 90.3353 22.6162ZM96.1055 30.5V21.21H98.0567V22.4316H98.127C98.3643 21.8516 99.0586 21.0781 100.351 21.0781C100.606 21.0781 100.825 21.0957 101.01 21.1309V22.8535C100.843 22.8096 100.5 22.7832 100.175 22.7832C98.6104 22.7832 98.083 23.75 98.083 24.998V30.5H96.1055ZM105.743 30.6582C103.256 30.6582 101.674 29.0146 101.674 26.2637V25.3232C101.674 22.7305 103.22 21.0518 105.664 21.0518C108.142 21.0518 109.636 22.792 109.636 25.4111V26.2988H103.598V26.5186C103.598 28.083 104.442 29.1201 105.769 29.1201C106.762 29.1201 107.439 28.6279 107.677 27.8281H109.531C109.25 29.3311 108.037 30.6582 105.743 30.6582ZM103.598 24.9365H107.729V24.9189C107.729 23.6006 106.912 22.5635 105.673 22.5635C104.416 22.5635 103.598 23.6006 103.598 24.9189V24.9365Z" fill="white"/>
</svg>
