<svg width="120" height="40" viewBox="0 0 120 40" fill="none" xmlns="http://www.w3.org/2000/svg">
<rect x="0.5" y="0.5" width="119" height="39" rx="5.5" fill="black"/>
<rect x="0.5" y="0.5" width="119" height="39" rx="5.5" stroke="#A6A6A6"/>
<path d="M17.8048 19.4617L8.0896 30.0059C8.09051 30.0078 8.09051 30.0106 8.09142 30.0125C8.38981 31.1574 9.41179 32 10.6254 32C11.1108 32 11.5662 31.8656 11.9567 31.6305L11.9877 31.6118L22.9229 25.1593L17.8048 19.4617Z" fill="#EA4335"/>
<path d="M27.6331 17.6662L27.624 17.6597L22.9028 14.8612L17.5839 19.7013L22.9219 25.1582L27.6176 22.3878C28.4406 21.9324 29 21.045 29 20.0223C29 19.0052 28.4489 18.1225 27.6331 17.6662Z" fill="#FBBC04"/>
<path d="M8.08942 9.99331C8.03102 10.2135 8 10.4449 8 10.6838V29.3163C8 29.5552 8.03102 29.7866 8.09034 30.0059L18.1386 19.7313L8.08942 9.99331Z" fill="#4285F4"/>
<path d="M17.8766 19.9999L22.9044 14.8594L11.9819 8.38351C11.585 8.13996 11.1214 8 10.626 8C9.41237 8 8.38856 8.84447 8.09018 9.99034C8.09018 9.99127 8.08926 9.9922 8.08926 9.99314L17.8766 19.9999Z" fill="#34A853"/>
<path d="M39.2 16.15C38.6967 16.15 38.2433 16.0667 37.84 15.9C37.44 15.73 37.1083 15.49 36.845 15.18C36.585 14.87 36.415 14.5017 36.335 14.075L37.085 13.95C37.205 14.4167 37.4583 14.7833 37.845 15.05C38.2317 15.3133 38.6933 15.445 39.23 15.445C39.5833 15.445 39.9 15.39 40.18 15.28C40.46 15.1667 40.68 15.0067 40.84 14.8C41 14.5933 41.08 14.3483 41.08 14.065C41.08 13.8783 41.0467 13.72 40.98 13.59C40.9133 13.4567 40.825 13.3467 40.715 13.26C40.605 13.1733 40.485 13.1017 40.355 13.045C40.225 12.985 40.0983 12.9367 39.975 12.9L38.15 12.355C37.93 12.2917 37.7267 12.2117 37.54 12.115C37.3533 12.015 37.19 11.8967 37.05 11.76C36.9133 11.62 36.8067 11.4567 36.73 11.27C36.6533 11.0833 36.615 10.87 36.615 10.63C36.615 10.2233 36.7217 9.87167 36.935 9.575C37.1483 9.27833 37.44 9.05 37.81 8.89C38.18 8.73 38.6017 8.65167 39.075 8.655C39.555 8.655 39.9833 8.74 40.36 8.91C40.74 9.08 41.0533 9.32333 41.3 9.64C41.5467 9.95333 41.71 10.325 41.79 10.755L41.02 10.895C40.97 10.5817 40.855 10.31 40.675 10.08C40.495 9.85 40.265 9.67333 39.985 9.55C39.7083 9.42333 39.4033 9.35833 39.07 9.355C38.7467 9.355 38.4583 9.41 38.205 9.52C37.955 9.62667 37.7567 9.77333 37.61 9.96C37.4633 10.1467 37.39 10.36 37.39 10.6C37.39 10.8433 37.4567 11.0383 37.59 11.185C37.7267 11.3317 37.8933 11.4467 38.09 11.53C38.29 11.6133 38.4833 11.6817 38.67 11.735L40.08 12.15C40.2267 12.19 40.3983 12.2483 40.595 12.325C40.795 12.3983 40.9883 12.505 41.175 12.645C41.365 12.7817 41.5217 12.9617 41.645 13.185C41.7683 13.4083 41.83 13.6917 41.83 14.035C41.83 14.3683 41.7633 14.6667 41.63 14.93C41.5 15.1933 41.315 15.415 41.075 15.595C40.8383 15.775 40.56 15.9117 40.24 16.005C39.9233 16.1017 39.5767 16.15 39.2 16.15ZM45.7771 16.15C45.0604 16.15 44.4554 15.9917 43.9621 15.675C43.4688 15.355 43.0954 14.9133 42.8421 14.35C42.5888 13.7867 42.4621 13.1367 42.4621 12.4C42.4621 11.6633 42.5888 11.0133 42.8421 10.45C43.0954 9.88667 43.4688 9.44667 43.9621 9.13C44.4554 8.81 45.0604 8.65 45.7771 8.65C46.6138 8.65 47.2971 8.865 47.8271 9.295C48.3571 9.72167 48.7204 10.295 48.9171 11.015L48.1671 11.21C48.0138 10.64 47.7388 10.1883 47.3421 9.855C46.9454 9.52167 46.4238 9.355 45.7771 9.355C45.2138 9.355 44.7454 9.48333 44.3721 9.74C43.9988 9.99667 43.7171 10.355 43.5271 10.815C43.3404 11.2717 43.2438 11.8 43.2371 12.4C43.2338 13 43.3254 13.5283 43.5121 13.985C43.7021 14.4417 43.9854 14.8 44.3621 15.06C44.7421 15.3167 45.2138 15.445 45.7771 15.445C46.4238 15.445 46.9454 15.2783 47.3421 14.945C47.7388 14.6083 48.0138 14.1567 48.1671 13.59L48.9171 13.785C48.7204 14.505 48.3571 15.08 47.8271 15.51C47.2971 15.9367 46.6138 16.15 45.7771 16.15ZM49.325 16L51.805 8.8H52.78L55.26 16H54.495L52.14 9.21H52.43L50.09 16H49.325ZM50.43 14.255V13.565H54.15V14.255H50.43ZM56.1629 16V8.8H58.9429C59.0129 8.8 59.0912 8.80333 59.1779 8.81C59.2679 8.81333 59.3579 8.82333 59.4479 8.84C59.8246 8.89667 60.1429 9.02833 60.4029 9.235C60.6662 9.43833 60.8646 9.695 60.9979 10.005C61.1346 10.315 61.2029 10.6583 61.2029 11.035C61.2029 11.5783 61.0596 12.05 60.7729 12.45C60.4862 12.85 60.0762 13.1017 59.5429 13.205L59.2879 13.265H56.8979V16H56.1629ZM60.5229 16L59.1029 13.07L59.8079 12.8L61.3679 16H60.5229ZM56.8979 12.565H58.9229C58.9829 12.565 59.0529 12.5617 59.1329 12.555C59.2129 12.5483 59.2912 12.5367 59.3679 12.52C59.6146 12.4667 59.8162 12.365 59.9729 12.215C60.1329 12.065 60.2512 11.8867 60.3279 11.68C60.4079 11.4733 60.4479 11.2583 60.4479 11.035C60.4479 10.8117 60.4079 10.5967 60.3279 10.39C60.2512 10.18 60.1329 10 59.9729 9.85C59.8162 9.7 59.6146 9.59833 59.3679 9.545C59.2912 9.52833 59.2129 9.51833 59.1329 9.515C59.0529 9.50833 58.9829 9.505 58.9229 9.505H56.8979V12.565ZM62.5715 16V8.8H63.3065V16H62.5715ZM67.7205 16.15C67.0038 16.15 66.3988 15.9917 65.9055 15.675C65.4121 15.355 65.0388 14.9133 64.7855 14.35C64.5321 13.7867 64.4055 13.1367 64.4055 12.4C64.4055 11.6633 64.5321 11.0133 64.7855 10.45C65.0388 9.88667 65.4121 9.44667 65.9055 9.13C66.3988 8.81 67.0038 8.65 67.7205 8.65C68.5571 8.65 69.2405 8.865 69.7705 9.295C70.3005 9.72167 70.6638 10.295 70.8605 11.015L70.1105 11.21C69.9571 10.64 69.6821 10.1883 69.2855 9.855C68.8888 9.52167 68.3671 9.355 67.7205 9.355C67.1571 9.355 66.6888 9.48333 66.3155 9.74C65.9421 9.99667 65.6605 10.355 65.4705 10.815C65.2838 11.2717 65.1871 11.8 65.1805 12.4C65.1771 13 65.2688 13.5283 65.4555 13.985C65.6455 14.4417 65.9288 14.8 66.3055 15.06C66.6855 15.3167 67.1571 15.445 67.7205 15.445C68.3671 15.445 68.8888 15.2783 69.2855 14.945C69.6821 14.6083 69.9571 14.1567 70.1105 13.59L70.8605 13.785C70.6638 14.505 70.3005 15.08 69.7705 15.51C69.2405 15.9367 68.5571 16.15 67.7205 16.15ZM71.2684 16L73.7484 8.8H74.7234L77.2034 16H76.4384L74.0834 9.21H74.3734L72.0334 16H71.2684ZM72.3734 14.255V13.565H76.0934V14.255H72.3734ZM78.2063 16V8.8H78.9413V15.295H82.3613V16H78.2063ZM82.7137 16L85.1937 8.8H86.1687L88.6487 16H87.8837L85.5287 9.21H85.8187L83.4787 16H82.7137ZM83.8187 14.255V13.565H87.5387V14.255H83.8187ZM91.5535 16V8.8H93.7385C93.8152 8.8 93.9452 8.80167 94.1285 8.805C94.3152 8.80833 94.4935 8.82167 94.6635 8.845C95.2102 8.92167 95.6668 9.125 96.0335 9.455C96.4002 9.785 96.6752 10.205 96.8585 10.715C97.0418 11.225 97.1335 11.7867 97.1335 12.4C97.1335 13.0133 97.0418 13.575 96.8585 14.085C96.6752 14.595 96.4002 15.015 96.0335 15.345C95.6668 15.675 95.2102 15.8783 94.6635 15.955C94.4968 15.975 94.3185 15.9883 94.1285 15.995C93.9385 15.9983 93.8085 16 93.7385 16H91.5535ZM92.3135 15.295H93.7385C93.8752 15.295 94.0218 15.2917 94.1785 15.285C94.3385 15.275 94.4752 15.2583 94.5885 15.235C95.0085 15.1617 95.3468 14.9917 95.6035 14.725C95.8635 14.4583 96.0535 14.125 96.1735 13.725C96.2935 13.3217 96.3535 12.88 96.3535 12.4C96.3535 11.9167 96.2935 11.4733 96.1735 11.07C96.0535 10.6667 95.8635 10.3333 95.6035 10.07C95.3435 9.80667 95.0052 9.63833 94.5885 9.565C94.4752 9.54167 94.3368 9.52667 94.1735 9.52C94.0135 9.51 93.8685 9.505 93.7385 9.505H92.3135V15.295ZM97.577 16L100.057 8.8H101.032L103.512 16H102.747L100.392 9.21H100.682L98.342 16H97.577ZM98.682 14.255V13.565H102.402V14.255H98.682Z" fill="white"/>
<path d="M93.5181 33.4097H95.1469V22.3981H93.5181V33.4097ZM108.189 26.3646L106.322 31.1388H106.266L104.328 26.3646H102.573L105.479 33.0371L103.823 36.749H105.521L110 26.3646H108.189ZM98.9519 32.1588C98.4176 32.1588 97.6739 31.8902 97.6739 31.2234C97.6739 30.3742 98.6001 30.0483 99.4005 30.0483C100.116 30.0483 100.454 30.2042 100.889 30.4165C100.762 31.4365 99.892 32.1588 98.9519 32.1588ZM99.1483 26.1241C97.969 26.1241 96.7469 26.6482 96.2424 27.8101L97.6879 28.4188C97.9969 27.8101 98.5721 27.611 99.1762 27.611C100.019 27.611 100.875 28.121 100.889 29.0283V29.1411C100.594 28.971 99.9627 28.7165 99.1902 28.7165C97.632 28.7165 96.0451 29.5806 96.0451 31.1952C96.0451 32.6689 97.323 33.6184 98.7546 33.6184C99.8501 33.6184 100.454 33.1225 100.833 32.5411H100.889V33.3912H102.461V29.1692C102.461 27.2146 101.015 26.1241 99.1483 26.1241ZM89.0821 27.7053H86.7655V23.9308H89.0821C90.2998 23.9308 90.9911 24.9482 90.9911 25.8176C90.9911 26.6711 90.2998 27.7053 89.0821 27.7053ZM89.0402 22.3981H85.1375V33.4097H86.7655V29.2379H89.0402C90.8453 29.2379 92.6199 27.9184 92.6199 25.8176C92.6199 23.7168 90.8453 22.3981 89.0402 22.3981ZM67.7583 32.1606C66.6332 32.1606 65.6913 31.2102 65.6913 29.9047C65.6913 28.5852 66.6332 27.6198 67.7583 27.6198C68.8695 27.6198 69.7406 28.5852 69.7406 29.9047C69.7406 31.2102 68.8695 32.1606 67.7583 32.1606ZM69.6289 26.9812H69.5722C69.2064 26.5417 68.5038 26.1444 67.6178 26.1444C65.7611 26.1444 64.0599 27.7898 64.0599 29.9047C64.0599 32.0047 65.7611 33.6369 67.6178 33.6369C68.5038 33.6369 69.2064 33.2396 69.5722 32.7851H69.6289V33.3251C69.6289 34.7582 68.8695 35.5246 67.6457 35.5246C66.6471 35.5246 66.0282 34.8005 65.7751 34.1901L64.3549 34.7864C64.7626 35.78 65.8458 37 67.6457 37C69.5582 37 71.1757 35.8646 71.1757 33.0978V26.3708H69.6289V26.9812ZM72.3008 33.4097H73.9323V22.3973H72.3008V33.4097ZM76.3362 29.777C76.2943 28.3298 77.4474 27.5916 78.2766 27.5916C78.9243 27.5916 79.4725 27.9176 79.6549 28.3862L76.3362 29.777ZM81.3989 28.528C81.0899 27.6912 80.1472 26.1444 78.2208 26.1444C76.3083 26.1444 74.7196 27.6621 74.7196 29.8907C74.7196 31.9906 76.2943 33.6369 78.4032 33.6369C80.1053 33.6369 81.0899 32.5869 81.4976 31.9765L80.2319 31.1247C79.8103 31.7493 79.2333 32.1606 78.4032 32.1606C77.5739 32.1606 76.983 31.7774 76.6033 31.0261L81.5674 28.9534L81.3989 28.528ZM41.8501 27.2939V28.883H45.6184C45.5058 29.777 45.2107 30.4297 44.7612 30.8834C44.2121 31.4374 43.3541 32.0479 41.8501 32.0479C39.5291 32.0479 37.7152 30.1602 37.7152 27.8189C37.7152 25.4767 39.5291 23.5899 41.8501 23.5899C43.1018 23.5899 44.0157 24.0867 44.6905 24.7254L45.8017 23.604C44.8589 22.6959 43.6081 22 41.8501 22C38.6719 22 36 24.6117 36 27.8189C36 31.0261 38.6719 33.6369 41.8501 33.6369C43.5653 33.6369 44.8589 33.0688 45.8715 32.0047C46.9129 30.9547 47.2358 29.4793 47.2358 28.2866C47.2358 27.9176 47.2079 27.5775 47.1512 27.2939H41.8501ZM51.5208 32.1606C50.3957 32.1606 49.425 31.2243 49.425 29.8907C49.425 28.5421 50.3957 27.6198 51.5208 27.6198C52.6451 27.6198 53.6158 28.5421 53.6158 29.8907C53.6158 31.2243 52.6451 32.1606 51.5208 32.1606ZM51.5208 26.1444C49.4669 26.1444 47.7936 27.7194 47.7936 29.8907C47.7936 32.0479 49.4669 33.6369 51.5208 33.6369C53.5739 33.6369 55.2472 32.0479 55.2472 29.8907C55.2472 27.7194 53.5739 26.1444 51.5208 26.1444ZM59.65 32.1606C58.5249 32.1606 57.5542 31.2243 57.5542 29.8907C57.5542 28.5421 58.5249 27.6198 59.65 27.6198C60.7752 27.6198 61.745 28.5421 61.745 29.8907C61.745 31.2243 60.7752 32.1606 59.65 32.1606ZM59.65 26.1444C57.597 26.1444 55.9237 27.7194 55.9237 29.8907C55.9237 32.0479 57.597 33.6369 59.65 33.6369C61.7031 33.6369 63.3764 32.0479 63.3764 29.8907C63.3764 27.7194 61.7031 26.1444 59.65 26.1444Z" fill="white"/>
</svg>
