<svg width="112" height="112" viewBox="0 0 112 112" fill="none" xmlns="http://www.w3.org/2000/svg">
<g clip-path="url(#clip0_39_1264)">
<rect width="112" height="112" rx="32" fill="#3741E1"/>
<circle cx="55.3454" cy="42.2545" r="24.2545" fill="white" fill-opacity="0.3"/>
<circle cx="55.3455" cy="42.2545" r="11.6" fill="white" fill-opacity="0.3"/>
<path fill-rule="evenodd" clip-rule="evenodd" d="M68.4258 91.0645C68.5878 91.1724 68.7717 91.2234 68.9536 91.2234C69.2575 91.2234 69.5574 91.0802 69.7393 90.8134C70.0332 90.3878 69.9173 89.811 69.4834 89.5227C67.914 88.485 65.9787 85.5034 65.363 83.634C65.2567 83.3112 65.0401 82.1377 64.8058 80.6131C65.9285 81.5888 67.4592 82.8454 69.1335 84.0106L69.8213 84.4853L69.8266 84.489C72.827 86.5567 75.1957 88.1892 75.961 92.1512C76.6667 95.792 74.9653 99.1542 73.162 102.714L73.0529 102.931C72.7613 103.51 72.4694 104.089 72.1904 104.668C70.437 108.311 68.2539 111.722 65.5169 115.098C63.5116 117.57 60.7986 121.393 60.3868 126.03C60.2268 127.843 60.1649 130.828 60.3848 134H62.2861C62.0662 130.873 62.1221 127.903 62.2741 126.191C62.6399 122.054 65.147 118.539 66.9983 116.253C69.8273 112.766 72.0864 109.237 73.9037 105.461C74.2116 104.821 74.5355 104.18 74.8594 103.54L74.8602 103.539C76.7213 99.8611 78.6459 96.0581 77.8223 91.804C76.9126 87.1001 73.9977 85.0915 70.9109 82.9651L70.2291 82.4943C67.4402 80.5537 64.9967 78.2816 64.4 77.7165C64.0837 75.2257 63.8386 72.6105 63.9255 71.2798C64.1274 68.1726 63.3317 59.6142 62.7539 56.405C62.3401 54.108 62.2621 53.2057 62.0042 50.2123C61.9063 49.0784 61.7823 47.6524 61.6064 45.7457C61.1225 40.522 60.1369 35.7258 56.2963 35.9338C53.5614 36.0868 51.5161 37.9993 51.3242 40.5828C51.1663 42.6719 51.0223 51.1577 51.2202 54.7239C51.3751 57.4997 51.319 62.1711 51.2595 67.1285L51.2582 67.233L51.2182 70.7698C51.2105 71.5483 51.1886 72.3175 51.1562 73.0678C50.5772 73.1898 47.5335 73.9006 45.7003 75.6993C45.3308 76.0615 45.0239 76.4619 44.7692 76.8757C43.5477 76.4003 41.1459 75.8584 38.1495 77.1725C36.9854 77.6827 36.1983 78.619 35.7289 79.712C34.5617 79.7756 31.8677 80.02 30.0677 81.1584C27.8087 82.5904 26.2197 86.4391 28.5349 92.9516C28.905 93.9923 29.3264 95.0997 29.7691 96.263L29.8078 96.3648L29.8099 96.3703C31.737 101.432 34.1348 107.73 34.2421 113.737C34.3068 117.353 34.1867 122.205 34.0705 126.898L34.07 126.919C34.0072 129.443 33.9469 131.895 33.9205 134H35.815C35.8411 131.915 35.9013 129.477 35.9635 126.964C36.0805 122.244 36.2012 117.366 36.136 113.703C36.0231 107.377 33.5607 100.91 31.5823 95.7139L31.5788 95.7046C31.1282 94.5211 30.6991 93.3942 30.3234 92.3376C28.3681 86.8392 29.5169 83.7203 31.0945 82.7218C32.2811 81.9703 34.0922 81.6977 35.2345 81.599C35.1678 82.1625 35.1658 82.7283 35.222 83.2672C35.272 83.7458 35.6832 84.1008 36.1631 84.1008C36.1954 84.1008 36.2278 84.1008 36.2606 84.0969C36.7812 84.0439 37.1597 83.5889 37.1065 83.0769C36.9696 81.7665 37.3402 79.5617 38.9224 78.8692C41.2655 77.841 43.0922 78.232 43.9941 78.5693C43.5688 79.8612 43.5274 80.9483 43.5251 81.025C43.5091 81.537 43.919 81.9646 44.4408 81.9803L44.4728 81.9823C44.9806 81.9823 45.4004 81.586 45.4184 81.0839L45.4187 81.0791C45.4254 80.9537 45.5593 78.4642 47.0398 77.0116C48.1969 75.8777 50.1047 75.2592 51.0481 75.0083C50.7541 79.341 50.1883 82.6426 50.1806 82.6845C50.0927 83.1906 50.4405 83.6712 50.9563 83.7575C51.4722 83.8458 51.96 83.5025 52.0479 82.9984C52.0899 82.763 53.0476 77.1666 53.1135 70.7874L53.1535 67.2546L53.1548 67.1508C53.2143 62.1618 53.2704 57.4603 53.1115 54.6219C52.9899 52.4235 53.0044 48.1589 53.0699 44.8508C53.6282 45.2654 54.433 45.5222 55.3061 45.6351C55.1783 47.3046 55.2679 47.8792 55.9065 48.1859C56.2803 48.3664 56.7181 48.2408 56.9321 47.8897C57.1213 47.5777 57.0879 47.1489 57.0583 46.7684C57.0507 46.6705 57.0433 46.5759 57.04 46.4872C57.0285 46.1835 57.0151 45.9169 57.0005 45.6807C58.1366 45.5971 58.9398 45.2729 59.4471 44.6982C59.4921 44.647 59.5344 44.594 59.5742 44.5391C59.6257 44.9702 59.6741 45.4281 59.7191 45.9144C59.895 47.8152 60.019 49.2393 60.1169 50.3692L60.1198 50.4027C60.3755 53.3544 60.4624 54.3582 60.8886 56.7287C61.4384 59.7809 62.2261 68.2256 62.0342 71.1602C61.8403 74.1673 63.1478 82.9513 63.5596 84.2048C64.2854 86.4077 66.4626 89.7659 68.4258 91.0645ZM56.9476 44.9848C57.8849 44.9173 58.5302 44.6728 58.9094 44.2431C59.2155 43.894 59.3532 43.3997 59.3212 42.7669C59.0198 40.9942 58.6519 39.8344 58.2558 39.0843C57.78 38.3466 57.162 37.9585 56.3743 37.8777C56.2054 37.8605 56.0505 37.8508 55.9054 37.8487C54.403 38.1255 53.3218 39.2499 53.2135 40.7181C53.1699 41.2997 53.127 42.4279 53.0927 43.82C53.3808 44.4156 54.302 44.7924 55.3652 44.937C55.3915 44.6474 55.4215 44.3317 55.4543 43.9872C55.5035 43.4711 55.5587 42.8905 55.6166 42.2364C55.6825 41.4851 56.8861 41.4812 56.8201 42.2364C56.731 43.2373 56.7739 43.5619 56.8485 44.1261C56.8786 44.3535 56.9138 44.6197 56.9476 44.9848ZM58.1096 51.2951C58.0876 51.2951 58.0657 51.2931 58.0437 51.2892C55.4843 50.818 54.2007 51.2573 54.16 51.2712C53.9761 51.3379 53.7712 51.25 53.7013 51.0695C53.6313 50.891 53.7233 50.6909 53.9052 50.6203C53.9632 50.5987 55.3607 50.0867 58.1756 50.6026C58.3675 50.6379 58.4955 50.8204 58.4595 51.0106C58.4275 51.1774 58.2776 51.2951 58.1096 51.2951ZM58.9433 64.8889C58.9653 64.8929 58.9893 64.8948 59.0113 64.8948C59.1772 64.8948 59.3272 64.7791 59.3592 64.6123C59.3972 64.424 59.2712 64.2396 59.0773 64.2043C56.6415 63.7429 54.3268 64.1691 54.1436 64.2028L54.1351 64.2043C53.9412 64.2416 53.8173 64.426 53.8552 64.6143C53.8952 64.8026 54.0811 64.9282 54.2731 64.8889C54.2971 64.883 56.5982 64.4436 58.9433 64.8889ZM60.4467 66.7897C60.4067 66.7897 60.3648 66.7838 60.3248 66.7681C57.9936 65.9266 55.7825 66.5171 55.7605 66.5229C55.5706 66.5779 55.3746 66.468 55.3226 66.2836C55.2687 66.0992 55.3786 65.905 55.5666 65.854C55.6645 65.8266 58.0136 65.191 60.5707 66.1149C60.7546 66.1816 60.8486 66.3817 60.7806 66.5622C60.7286 66.7034 60.5927 66.7897 60.4467 66.7897Z" fill="white"/>
</g>
<defs>
<clipPath id="clip0_39_1264">
<rect width="112" height="112" rx="32" fill="white"/>
</clipPath>
</defs>
</svg>
